<?xml version="1.0" encoding="iso-8859-1"?>
<!-- Generator: Adobe Illustrator 16.0.0, SVG Export Plug-In . SVG Version: 6.00 Build 0)  -->
<!DOCTYPE svg PUBLIC "-//W3C//DTD SVG 1.1//EN" "http://www.w3.org/Graphics/SVG/1.1/DTD/svg11.dtd">
<svg version="1.1" xmlns="http://www.w3.org/2000/svg" xmlns:xlink="http://www.w3.org/1999/xlink" x="0px" y="0px" width="148px"
	 height="148px" viewBox="0 0 148 148" style="enable-background:new 0 0 148 148;" xml:space="preserve">
<g id="circle_x5F_solid_x5F_red">
	<g>
		<path id="path4316_2_" style="fill:#E52D2C;" d="M73.999,0C114.868,0,148,33.13,148,74c0,40.869-33.132,74-74.001,74
			C33.131,148,0,114.869,0,74C0,33.131,33.131,0,73.999,0L73.999,0z"/>
		<path id="path4296_5_" style="fill:#FFFFFF;" d="M93.918,15.438c0,0-5.369,5.196-5.334,12.575
			c0.032,6.765,3.803,14.32,12.575,14.565c8.331,0.104,11.912-8.52,12.229-14.091c0.697-8.261-7.623-22.514-29.662-23.159
			C56.984,4.532,47.301,28.661,47.832,40.589c0.557,10.745,2.76,18,25.356,31.005C85.987,78.983,91.713,84.188,95.045,88.8
			c3.332,4.61,3.646,8.461,3.646,8.461s0.51,2.748,3.293-0.186c2.627-2.71,6.521-11.087,6.574-20.013
			c-0.238-7.005,0.26-18.143-25.364-31.822C60.217,33.71,65.918,21.448,65.918,21.448s0.928-4.599,5.991-7.854
			c5.065-3.256,15.125-4.712,22.405,0.41C95.03,14.483,93.918,15.438,93.918,15.438z"/>
		<path id="path4296_4_" style="fill:#FFFFFF;" d="M51.368,131.071c0,0,5.37-5.196,5.334-12.576
			c-0.032-6.765-3.803-14.32-12.575-14.564c-8.33-0.104-11.912,8.52-12.229,14.091c-0.698,8.262,7.621,22.516,29.66,23.159
			c26.744,0.795,36.428-23.334,35.897-35.262c-0.559-10.744-2.761-18-25.358-31.006c-12.799-7.389-18.526-12.594-21.855-17.205
			c-3.334-4.612-3.648-8.461-3.648-8.461s-0.508-2.749-3.293,0.185c-2.627,2.71-6.521,11.086-6.574,20.013
			c0.238,7.006-0.26,18.144,25.365,31.821c22.977,11.531,17.276,23.795,17.276,23.795s-0.927,4.599-5.991,7.854
			c-5.066,3.258-15.125,4.713-22.404-0.408C50.256,132.024,51.368,131.071,51.368,131.071z"/>
	</g>
</g>
<g id="Layer_1">
</g>
</svg>
